<svg xmlns="http://www.w3.org/2000/svg" xmlns:xlink="http://www.w3.org/1999/xlink" width="500" zoomAndPan="magnify" viewBox="0 0 375 374.999991" height="500" preserveAspectRatio="xMidYMid meet" version="1.0"><defs><g/><clipPath id="id1"><path d="M 283.914062 169.78125 L 298.164062 169.78125 L 298.164062 190.78125 L 283.914062 190.78125 Z M 283.914062 169.78125 " clip-rule="nonzero"/></clipPath></defs><g clip-path="url(#id1)"><path fill="rgb(100%, 100%, 100%)" d="M 291.421875 169.984375 C 291.335938 169.859375 291.191406 169.78125 291.039062 169.78125 C 290.886719 169.78125 290.742188 169.859375 290.65625 169.984375 C 290.484375 170.234375 286.453125 176.128906 284.707031 180.488281 C 284.175781 181.824219 283.914062 182.855469 283.914062 183.640625 C 283.914062 187.578125 287.109375 190.78125 291.039062 190.78125 C 292.78125 190.78125 294.457031 190.144531 295.761719 188.988281 C 295.953125 188.820312 295.972656 188.523438 295.800781 188.332031 C 295.628906 188.136719 295.335938 188.121094 295.144531 188.292969 C 294.011719 189.296875 292.554688 189.847656 291.039062 189.847656 C 287.625 189.847656 284.847656 187.0625 284.847656 183.640625 C 284.847656 182.984375 285.089844 182.039062 285.574219 180.835938 C 286.96875 177.347656 289.972656 172.691406 291.039062 171.085938 C 292.445312 173.207031 297.234375 180.640625 297.234375 183.640625 L 297.234375 183.671875 C 297.234375 184.523438 296.894531 185.3125 296.277344 185.898438 C 295.664062 186.480469 294.863281 186.777344 294.023438 186.730469 C 292.527344 186.652344 291.371094 185.914062 291.359375 185.90625 C 291.34375 185.894531 291.324219 185.886719 291.308594 185.875 C 290.398438 185.441406 288.039062 183.925781 288.039062 182.183594 C 288.039062 181.492188 288.34375 180.75 289.195312 180.75 C 289.589844 180.75 290.316406 181.347656 290.65625 181.839844 C 290.742188 181.96875 290.886719 182.042969 291.039062 182.042969 C 291.191406 182.042969 291.335938 181.96875 291.421875 181.839844 C 291.777344 181.324219 292.441406 180.75 292.828125 180.75 C 293.664062 180.75 294.039062 181.46875 294.039062 182.183594 C 294.039062 182.855469 293.574219 183.65625 292.691406 184.496094 C 292.507812 184.675781 292.5 184.972656 292.675781 185.15625 C 292.855469 185.34375 293.148438 185.351562 293.335938 185.171875 C 294.421875 184.136719 294.96875 183.128906 294.96875 182.183594 C 294.96875 180.8125 294.070312 179.816406 292.828125 179.816406 C 292.15625 179.816406 291.480469 180.355469 291.035156 180.84375 C 290.570312 180.359375 289.863281 179.816406 289.195312 179.816406 C 287.964844 179.816406 287.109375 180.789062 287.109375 182.183594 C 287.109375 184.773438 290.515625 186.527344 290.878906 186.707031 C 291.082031 186.832031 292.332031 187.574219 293.972656 187.664062 C 295.070312 187.722656 296.117188 187.335938 296.917969 186.578125 C 297.722656 185.8125 298.164062 184.78125 298.164062 183.671875 L 298.164062 183.640625 C 298.164062 179.855469 291.699219 170.386719 291.421875 169.984375 " fill-opacity="1" fill-rule="nonzero"/></g><g fill="rgb(100%, 100%, 100%)" fill-opacity="1"><g transform="translate(43.911343, 162.351033)"><g><path d="M 40.640625 -7.234375 C 40.640625 -4.429688 40.941406 -2.25 41.546875 -0.6875 C 41.191406 -0.332031 40.695312 -0.00390625 40.0625 0.296875 C 39.425781 0.597656 38.695312 0.75 37.875 0.75 C 36.882812 0.75 36.0625 0.445312 35.40625 -0.15625 C 34.75 -0.757812 34.421875 -1.578125 34.421875 -2.609375 L 34.375 -29.796875 L 24.640625 -4.6875 C 23.253906 -4.21875 22.097656 -3.984375 21.171875 -3.984375 C 20.359375 -3.984375 19.546875 -4.144531 18.734375 -4.46875 C 16.878906 -8.300781 15.003906 -12.476562 13.109375 -17 C 11.210938 -21.519531 9.519531 -25.890625 8.03125 -30.109375 L 8.09375 -7.1875 C 8.09375 -4.164062 8.410156 -1.804688 9.046875 -0.109375 C 8.410156 0.460938 7.628906 0.75 6.703125 0.75 C 5.285156 0.75 4.578125 -0.117188 4.578125 -1.859375 L 4.578125 -29.90625 C 4.578125 -32.707031 4.453125 -35.03125 4.203125 -36.875 C 4.734375 -37.40625 6.1875 -37.671875 8.5625 -37.671875 C 10.050781 -37.671875 11.171875 -37.28125 11.921875 -36.5 L 14.953125 -29 C 17.398438 -22.820312 19.972656 -16.507812 22.671875 -10.0625 C 26.960938 -21.375 30.273438 -30.378906 32.609375 -37.078125 C 33.710938 -37.472656 35.0625 -37.671875 36.65625 -37.671875 C 37.613281 -37.671875 38.484375 -37.523438 39.265625 -37.234375 C 40.046875 -36.953125 40.488281 -36.617188 40.59375 -36.234375 Z M 40.640625 -7.234375 "/></g></g></g><g fill="rgb(100%, 100%, 100%)" fill-opacity="1"><g transform="translate(89.184894, 162.351033)"><g><path d="M 28.84375 -5 C 29.300781 -4.320312 29.53125 -3.628906 29.53125 -2.921875 C 29.53125 -1.929688 29.101562 -1.109375 28.25 -0.453125 C 27.394531 0.203125 26.28125 0.53125 24.90625 0.53125 C 23.195312 0.53125 21.878906 -0.0390625 20.953125 -1.1875 C 20.035156 -2.34375 19.523438 -4.21875 19.421875 -6.8125 C 18.390625 -4.570312 16.96875 -2.785156 15.15625 -1.453125 C 13.351562 -0.128906 11.265625 0.53125 8.890625 0.53125 C 6.828125 0.53125 5.164062 -0.015625 3.90625 -1.109375 C 2.644531 -2.210938 2.015625 -3.738281 2.015625 -5.6875 C 2.015625 -7.957031 2.875 -9.816406 4.59375 -11.265625 C 6.320312 -12.722656 8.515625 -13.828125 11.171875 -14.578125 C 13.546875 -15.253906 16.171875 -15.59375 19.046875 -15.59375 L 19.046875 -16.96875 C 19.046875 -19.988281 18.644531 -22.222656 17.84375 -23.671875 C 17.050781 -25.128906 15.734375 -25.859375 13.890625 -25.859375 C 12.648438 -25.859375 11.640625 -25.53125 10.859375 -24.875 C 10.078125 -24.21875 9.6875 -23.179688 9.6875 -21.765625 C 9.6875 -20.941406 9.835938 -20.175781 10.140625 -19.46875 C 10.441406 -18.757812 10.945312 -18.226562 11.65625 -17.875 C 11.300781 -17.488281 10.8125 -17.195312 10.1875 -17 C 9.5625 -16.800781 8.894531 -16.703125 8.1875 -16.703125 C 6.695312 -16.703125 5.5 -17.160156 4.59375 -18.078125 C 3.695312 -19.003906 3.25 -20.160156 3.25 -21.546875 C 3.25 -23.640625 4.234375 -25.253906 6.203125 -26.390625 C 8.171875 -27.523438 10.859375 -28.09375 14.265625 -28.09375 C 18.160156 -28.09375 21.007812 -27.175781 22.8125 -25.34375 C 24.625 -23.519531 25.53125 -20.585938 25.53125 -16.546875 L 25.53125 -7.015625 C 25.53125 -5.140625 26.132812 -4.203125 27.34375 -4.203125 C 27.59375 -4.203125 27.859375 -4.265625 28.140625 -4.390625 C 28.421875 -4.515625 28.65625 -4.71875 28.84375 -5 Z M 11.765625 -3.625 C 12.859375 -3.625 13.988281 -4.066406 15.15625 -4.953125 C 16.332031 -5.835938 17.3125 -7.03125 18.09375 -8.53125 C 18.875 -10.039062 19.265625 -11.679688 19.265625 -13.453125 C 16.421875 -13.523438 14.164062 -13.15625 12.5 -12.34375 C 11.40625 -11.8125 10.535156 -11.101562 9.890625 -10.21875 C 9.253906 -9.332031 8.9375 -8.320312 8.9375 -7.1875 C 8.9375 -6.15625 9.164062 -5.300781 9.625 -4.625 C 10.09375 -3.957031 10.804688 -3.625 11.765625 -3.625 Z M 11.765625 -3.625 "/></g></g></g><g fill="rgb(100%, 100%, 100%)" fill-opacity="1"><g transform="translate(119.083527, 162.351033)"><g><path d="M 42.828125 -7.234375 C 42.828125 -4.535156 43.144531 -2.351562 43.78125 -0.6875 C 42.6875 0.269531 41.484375 0.75 40.171875 0.75 C 39.109375 0.75 38.238281 0.445312 37.5625 -0.15625 C 36.882812 -0.757812 36.546875 -1.578125 36.546875 -2.609375 L 36.5 -16.328125 C 36.5 -19.203125 36.25 -21.375 35.75 -22.84375 C 35.25 -24.320312 34.238281 -25.0625 32.71875 -25.0625 C 31.726562 -25.0625 30.785156 -24.609375 29.890625 -23.703125 C 29.003906 -22.796875 28.28125 -21.425781 27.71875 -19.59375 C 27.15625 -17.769531 26.851562 -15.546875 26.8125 -12.921875 L 26.8125 -7.234375 C 26.8125 -4.535156 27.128906 -2.351562 27.765625 -0.6875 C 26.671875 0.269531 25.484375 0.75 24.203125 0.75 C 23.210938 0.75 22.378906 0.445312 21.703125 -0.15625 C 21.035156 -0.757812 20.703125 -1.578125 20.703125 -2.609375 L 20.703125 -16.328125 C 20.703125 -19.304688 20.40625 -21.503906 19.8125 -22.921875 C 19.226562 -24.347656 18.175781 -25.0625 16.65625 -25.0625 C 15.019531 -25.0625 13.671875 -23.992188 12.609375 -21.859375 C 11.546875 -19.734375 11.015625 -16.597656 11.015625 -12.453125 C 11.015625 -8.472656 11.066406 -5.816406 11.171875 -4.484375 C 11.273438 -3.160156 11.578125 -1.878906 12.078125 -0.640625 C 11.578125 -0.242188 11.0625 0.0820312 10.53125 0.34375 C 10 0.613281 9.304688 0.75 8.453125 0.75 C 7.390625 0.75 6.519531 0.421875 5.84375 -0.234375 C 5.175781 -0.890625 4.84375 -1.769531 4.84375 -2.875 L 4.78125 -20.484375 C 4.78125 -22.359375 4.234375 -23.296875 3.140625 -23.296875 C 2.859375 -23.296875 2.570312 -23.222656 2.28125 -23.078125 C 2 -22.941406 1.789062 -22.734375 1.65625 -22.453125 C 1.226562 -23.054688 1.015625 -23.75 1.015625 -24.53125 C 1.015625 -25.59375 1.375 -26.441406 2.09375 -27.078125 C 2.820312 -27.710938 3.804688 -28.03125 5.046875 -28.03125 C 6.648438 -28.03125 7.898438 -27.488281 8.796875 -26.40625 C 9.703125 -25.332031 10.191406 -23.710938 10.265625 -21.546875 C 10.941406 -23.609375 11.988281 -25.210938 13.40625 -26.359375 C 14.820312 -27.515625 16.597656 -28.09375 18.734375 -28.09375 C 20.859375 -28.09375 22.53125 -27.566406 23.75 -26.515625 C 24.976562 -25.472656 25.835938 -23.890625 26.328125 -21.765625 C 27.003906 -23.742188 28.0625 -25.289062 29.5 -26.40625 C 30.9375 -27.53125 32.679688 -28.09375 34.734375 -28.09375 C 40.128906 -28.09375 42.828125 -24.492188 42.828125 -17.296875 Z M 42.828125 -7.234375 "/></g></g></g><g fill="rgb(100%, 100%, 100%)" fill-opacity="1"><g transform="translate(165.42108, 162.351033)"><g><path d="M 28.84375 -5 C 29.300781 -4.320312 29.53125 -3.628906 29.53125 -2.921875 C 29.53125 -1.929688 29.101562 -1.109375 28.25 -0.453125 C 27.394531 0.203125 26.28125 0.53125 24.90625 0.53125 C 23.195312 0.53125 21.878906 -0.0390625 20.953125 -1.1875 C 20.035156 -2.34375 19.523438 -4.21875 19.421875 -6.8125 C 18.390625 -4.570312 16.96875 -2.785156 15.15625 -1.453125 C 13.351562 -0.128906 11.265625 0.53125 8.890625 0.53125 C 6.828125 0.53125 5.164062 -0.015625 3.90625 -1.109375 C 2.644531 -2.210938 2.015625 -3.738281 2.015625 -5.6875 C 2.015625 -7.957031 2.875 -9.816406 4.59375 -11.265625 C 6.320312 -12.722656 8.515625 -13.828125 11.171875 -14.578125 C 13.546875 -15.253906 16.171875 -15.59375 19.046875 -15.59375 L 19.046875 -16.96875 C 19.046875 -19.988281 18.644531 -22.222656 17.84375 -23.671875 C 17.050781 -25.128906 15.734375 -25.859375 13.890625 -25.859375 C 12.648438 -25.859375 11.640625 -25.53125 10.859375 -24.875 C 10.078125 -24.21875 9.6875 -23.179688 9.6875 -21.765625 C 9.6875 -20.941406 9.835938 -20.175781 10.140625 -19.46875 C 10.441406 -18.757812 10.945312 -18.226562 11.65625 -17.875 C 11.300781 -17.488281 10.8125 -17.195312 10.1875 -17 C 9.5625 -16.800781 8.894531 -16.703125 8.1875 -16.703125 C 6.695312 -16.703125 5.5 -17.160156 4.59375 -18.078125 C 3.695312 -19.003906 3.25 -20.160156 3.25 -21.546875 C 3.25 -23.640625 4.234375 -25.253906 6.203125 -26.390625 C 8.171875 -27.523438 10.859375 -28.09375 14.265625 -28.09375 C 18.160156 -28.09375 21.007812 -27.175781 22.8125 -25.34375 C 24.625 -23.519531 25.53125 -20.585938 25.53125 -16.546875 L 25.53125 -7.015625 C 25.53125 -5.140625 26.132812 -4.203125 27.34375 -4.203125 C 27.59375 -4.203125 27.859375 -4.265625 28.140625 -4.390625 C 28.421875 -4.515625 28.65625 -4.71875 28.84375 -5 Z M 11.765625 -3.625 C 12.859375 -3.625 13.988281 -4.066406 15.15625 -4.953125 C 16.332031 -5.835938 17.3125 -7.03125 18.09375 -8.53125 C 18.875 -10.039062 19.265625 -11.679688 19.265625 -13.453125 C 16.421875 -13.523438 14.164062 -13.15625 12.5 -12.34375 C 11.40625 -11.8125 10.535156 -11.101562 9.890625 -10.21875 C 9.253906 -9.332031 8.9375 -8.320312 8.9375 -7.1875 C 8.9375 -6.15625 9.164062 -5.300781 9.625 -4.625 C 10.09375 -3.957031 10.804688 -3.625 11.765625 -3.625 Z M 11.765625 -3.625 "/></g></g></g><g fill="rgb(100%, 100%, 100%)" fill-opacity="1"><g transform="translate(195.319713, 162.351033)"><g/></g></g><g fill="rgb(100%, 100%, 100%)" fill-opacity="1"><g transform="translate(206.757803, 162.351033)"><g><path d="M 30.90625 -3.890625 C 31.375 -2.460938 31.90625 -1.414062 32.5 -0.75 C 31.6875 0.207031 30.445312 0.6875 28.78125 0.6875 C 27.75 0.6875 26.890625 0.472656 26.203125 0.046875 C 25.515625 -0.367188 25.082031 -0.988281 24.90625 -1.8125 L 22.34375 -11.0625 L 9.890625 -11.0625 L 7.921875 -3.78125 C 7.679688 -2.925781 7.5625 -2.179688 7.5625 -1.546875 C 7.5625 -0.835938 7.738281 -0.320312 8.09375 0 C 6.914062 0.457031 5.742188 0.6875 4.578125 0.6875 C 3.335938 0.6875 2.429688 0.472656 1.859375 0.046875 C 1.296875 -0.367188 1.015625 -1.054688 1.015625 -2.015625 C 1.015625 -2.722656 1.226562 -3.84375 1.65625 -5.375 L 12.296875 -36.921875 C 14.203125 -37.523438 15.988281 -37.828125 17.65625 -37.828125 C 19.570312 -37.828125 20.742188 -37.117188 21.171875 -35.703125 Z M 21.328125 -14.578125 L 16.015625 -33.9375 L 10.796875 -14.578125 Z M 21.328125 -14.578125 "/></g></g></g><g fill="rgb(100%, 100%, 100%)" fill-opacity="1"><g transform="translate(239.529262, 162.351033)"><g><path d="M 11.4375 -27.296875 C 12.144531 -27.296875 13.242188 -27.320312 14.734375 -27.375 C 16.222656 -27.425781 17.078125 -27.46875 17.296875 -27.5 L 17.234375 -25.96875 C 17.203125 -25.4375 17.035156 -25.035156 16.734375 -24.765625 C 16.429688 -24.492188 16.050781 -24.359375 15.59375 -24.359375 L 10.75 -24.359375 L 10.75 -7.015625 C 10.75 -5.140625 11.5625 -4.203125 13.1875 -4.203125 C 13.65625 -4.203125 14.109375 -4.265625 14.546875 -4.390625 C 14.992188 -4.515625 15.269531 -4.71875 15.375 -5 C 15.875 -4.363281 16.125 -3.671875 16.125 -2.921875 C 16.125 -1.898438 15.625 -1.066406 14.625 -0.421875 C 13.632812 0.210938 12.320312 0.53125 10.6875 0.53125 C 8.707031 0.53125 7.175781 -0.0859375 6.09375 -1.328125 C 5.007812 -2.566406 4.46875 -4.285156 4.46875 -6.484375 L 4.46875 -24.359375 L 3.671875 -24.359375 C 2.210938 -24.359375 1.148438 -24.304688 0.484375 -24.203125 L 0.53125 -25.75 C 0.5625 -26.25 0.726562 -26.628906 1.03125 -26.890625 C 1.332031 -27.160156 1.71875 -27.296875 2.1875 -27.296875 L 4.46875 -27.296875 L 4.46875 -31.125 C 4.46875 -32.15625 4.800781 -32.960938 5.46875 -33.546875 C 6.144531 -34.128906 7.019531 -34.421875 8.09375 -34.421875 C 8.90625 -34.421875 9.613281 -34.28125 10.21875 -34 C 10.820312 -33.71875 11.300781 -33.398438 11.65625 -33.046875 C 11.1875 -31.191406 10.898438 -29.273438 10.796875 -27.296875 Z M 11.4375 -27.296875 "/></g></g></g><g fill="rgb(100%, 100%, 100%)" fill-opacity="1"><g transform="translate(258.149396, 162.351033)"><g><path d="M 7.078125 -31.078125 C 6.046875 -31.078125 5.164062 -31.429688 4.4375 -32.140625 C 3.71875 -32.847656 3.359375 -33.710938 3.359375 -34.734375 C 3.359375 -35.804688 3.71875 -36.695312 4.4375 -37.40625 C 5.164062 -38.113281 6.046875 -38.46875 7.078125 -38.46875 C 8.109375 -38.46875 8.984375 -38.113281 9.703125 -37.40625 C 10.429688 -36.695312 10.796875 -35.804688 10.796875 -34.734375 C 10.796875 -33.710938 10.429688 -32.847656 9.703125 -32.140625 C 8.984375 -31.429688 8.109375 -31.078125 7.078125 -31.078125 Z M 10.484375 -7.234375 C 10.484375 -4.429688 10.785156 -2.25 11.390625 -0.6875 C 11.035156 -0.332031 10.546875 -0.00390625 9.921875 0.296875 C 9.296875 0.597656 8.578125 0.75 7.765625 0.75 C 6.773438 0.75 5.941406 0.445312 5.265625 -0.15625 C 4.585938 -0.757812 4.25 -1.578125 4.25 -2.609375 L 4.203125 -20.15625 C 4.203125 -22.78125 3.898438 -24.960938 3.296875 -26.703125 C 4.328125 -27.628906 5.5 -28.09375 6.8125 -28.09375 C 7.875 -28.09375 8.734375 -27.796875 9.390625 -27.203125 C 10.046875 -26.617188 10.375 -25.816406 10.375 -24.796875 Z M 10.484375 -7.234375 "/></g></g></g><g fill="rgb(100%, 100%, 100%)" fill-opacity="1"><g transform="translate(272.460311, 162.351033)"><g><path d="M 22.609375 -27.9375 C 23.816406 -27.9375 24.691406 -27.710938 25.234375 -27.265625 C 25.785156 -26.816406 26.0625 -26.132812 26.0625 -25.21875 C 26.0625 -24.082031 25.851562 -22.960938 25.4375 -21.859375 L 17.1875 -0.21875 C 15.769531 0.425781 14.347656 0.75 12.921875 0.75 C 11.117188 0.75 10.003906 0.0351562 9.578125 -1.390625 L 2.015625 -23.359375 C 1.984375 -23.429688 1.832031 -23.847656 1.5625 -24.609375 C 1.300781 -25.367188 0.941406 -26 0.484375 -26.5 C 1.367188 -27.457031 2.570312 -27.9375 4.09375 -27.9375 C 5.09375 -27.9375 5.921875 -27.722656 6.578125 -27.296875 C 7.234375 -26.867188 7.648438 -26.25 7.828125 -25.4375 L 14.046875 -3.1875 L 19.46875 -23.46875 C 19.6875 -24.457031 19.796875 -25.179688 19.796875 -25.640625 C 19.796875 -26.347656 19.648438 -26.878906 19.359375 -27.234375 C 20.429688 -27.703125 21.515625 -27.9375 22.609375 -27.9375 Z M 22.609375 -27.9375 "/></g></g></g><g fill="rgb(100%, 100%, 100%)" fill-opacity="1"><g transform="translate(299.32651, 162.351033)"><g><path d="M 28.84375 -5 C 29.300781 -4.320312 29.53125 -3.628906 29.53125 -2.921875 C 29.53125 -1.929688 29.101562 -1.109375 28.25 -0.453125 C 27.394531 0.203125 26.28125 0.53125 24.90625 0.53125 C 23.195312 0.53125 21.878906 -0.0390625 20.953125 -1.1875 C 20.035156 -2.34375 19.523438 -4.21875 19.421875 -6.8125 C 18.390625 -4.570312 16.96875 -2.785156 15.15625 -1.453125 C 13.351562 -0.128906 11.265625 0.53125 8.890625 0.53125 C 6.828125 0.53125 5.164062 -0.015625 3.90625 -1.109375 C 2.644531 -2.210938 2.015625 -3.738281 2.015625 -5.6875 C 2.015625 -7.957031 2.875 -9.816406 4.59375 -11.265625 C 6.320312 -12.722656 8.515625 -13.828125 11.171875 -14.578125 C 13.546875 -15.253906 16.171875 -15.59375 19.046875 -15.59375 L 19.046875 -16.96875 C 19.046875 -19.988281 18.644531 -22.222656 17.84375 -23.671875 C 17.050781 -25.128906 15.734375 -25.859375 13.890625 -25.859375 C 12.648438 -25.859375 11.640625 -25.53125 10.859375 -24.875 C 10.078125 -24.21875 9.6875 -23.179688 9.6875 -21.765625 C 9.6875 -20.941406 9.835938 -20.175781 10.140625 -19.46875 C 10.441406 -18.757812 10.945312 -18.226562 11.65625 -17.875 C 11.300781 -17.488281 10.8125 -17.195312 10.1875 -17 C 9.5625 -16.800781 8.894531 -16.703125 8.1875 -16.703125 C 6.695312 -16.703125 5.5 -17.160156 4.59375 -18.078125 C 3.695312 -19.003906 3.25 -20.160156 3.25 -21.546875 C 3.25 -23.640625 4.234375 -25.253906 6.203125 -26.390625 C 8.171875 -27.523438 10.859375 -28.09375 14.265625 -28.09375 C 18.160156 -28.09375 21.007812 -27.175781 22.8125 -25.34375 C 24.625 -23.519531 25.53125 -20.585938 25.53125 -16.546875 L 25.53125 -7.015625 C 25.53125 -5.140625 26.132812 -4.203125 27.34375 -4.203125 C 27.59375 -4.203125 27.859375 -4.265625 28.140625 -4.390625 C 28.421875 -4.515625 28.65625 -4.71875 28.84375 -5 Z M 11.765625 -3.625 C 12.859375 -3.625 13.988281 -4.066406 15.15625 -4.953125 C 16.332031 -5.835938 17.3125 -7.03125 18.09375 -8.53125 C 18.875 -10.039062 19.265625 -11.679688 19.265625 -13.453125 C 16.421875 -13.523438 14.164062 -13.15625 12.5 -12.34375 C 11.40625 -11.8125 10.535156 -11.101562 9.890625 -10.21875 C 9.253906 -9.332031 8.9375 -8.320312 8.9375 -7.1875 C 8.9375 -6.15625 9.164062 -5.300781 9.625 -4.625 C 10.09375 -3.957031 10.804688 -3.625 11.765625 -3.625 Z M 11.765625 -3.625 "/></g></g></g><g fill="rgb(100%, 100%, 100%)" fill-opacity="1"><g transform="translate(89.106912, 187.333245)"><g><path d="M 11.203125 -5.84375 C 11.203125 -4.65625 10.972656 -3.617188 10.515625 -2.734375 C 10.054688 -1.847656 9.40625 -1.171875 8.5625 -0.703125 C 7.71875 -0.234375 6.742188 0 5.640625 0 L 1.359375 0 L 1.359375 -11.4375 L 5.140625 -11.4375 C 7.078125 -11.4375 8.570312 -10.953125 9.625 -9.984375 C 10.675781 -9.015625 11.203125 -7.632812 11.203125 -5.84375 Z M 9.65625 -5.84375 C 9.65625 -7.257812 9.265625 -8.335938 8.484375 -9.078125 C 7.710938 -9.828125 6.585938 -10.203125 5.109375 -10.203125 L 2.921875 -10.203125 L 2.921875 -1.234375 L 5.46875 -1.234375 C 6.300781 -1.234375 7.035156 -1.414062 7.671875 -1.78125 C 8.304688 -2.15625 8.796875 -2.6875 9.140625 -3.375 C 9.484375 -4.070312 9.65625 -4.894531 9.65625 -5.84375 Z M 9.65625 -5.84375 "/></g></g></g><g fill="rgb(100%, 100%, 100%)" fill-opacity="1"><g transform="translate(104.599449, 187.333245)"><g><path d="M 12.140625 -5.765625 C 12.140625 -4.578125 11.910156 -3.53125 11.453125 -2.625 C 10.992188 -1.726562 10.335938 -1.039062 9.484375 -0.5625 C 8.628906 -0.0820312 7.617188 0.15625 6.453125 0.15625 C 5.273438 0.15625 4.257812 -0.078125 3.40625 -0.546875 C 2.5625 -1.023438 1.910156 -1.710938 1.453125 -2.609375 C 1.003906 -3.515625 0.78125 -4.566406 0.78125 -5.765625 C 0.78125 -7.597656 1.28125 -9.03125 2.28125 -10.0625 C 3.289062 -11.09375 4.6875 -11.609375 6.46875 -11.609375 C 7.632812 -11.609375 8.644531 -11.375 9.5 -10.90625 C 10.351562 -10.445312 11.003906 -9.773438 11.453125 -8.890625 C 11.910156 -8.015625 12.140625 -6.972656 12.140625 -5.765625 Z M 10.546875 -5.765625 C 10.546875 -7.191406 10.191406 -8.3125 9.484375 -9.125 C 8.773438 -9.9375 7.769531 -10.34375 6.46875 -10.34375 C 5.15625 -10.34375 4.140625 -9.941406 3.421875 -9.140625 C 2.710938 -8.335938 2.359375 -7.210938 2.359375 -5.765625 C 2.359375 -4.335938 2.71875 -3.203125 3.4375 -2.359375 C 4.164062 -1.515625 5.171875 -1.09375 6.453125 -1.09375 C 7.773438 -1.09375 8.785156 -1.5 9.484375 -2.3125 C 10.191406 -3.132812 10.546875 -4.285156 10.546875 -5.765625 Z M 10.546875 -5.765625 "/></g></g></g><g fill="rgb(100%, 100%, 100%)" fill-opacity="1"><g transform="translate(121.016966, 187.333245)"><g><path d="M 1.359375 0 L 1.359375 -11.4375 L 10.046875 -11.4375 L 10.046875 -10.171875 L 2.921875 -10.171875 L 2.921875 -6.5 L 9.546875 -6.5 L 9.546875 -5.25 L 2.921875 -5.25 L 2.921875 -1.265625 L 10.375 -1.265625 L 10.375 0 Z M 1.359375 0 "/></g></g></g><g fill="rgb(100%, 100%, 100%)" fill-opacity="1"><g transform="translate(135.592638, 187.333245)"><g/></g></g><g fill="rgb(100%, 100%, 100%)" fill-opacity="1"><g transform="translate(143.70156, 187.333245)"><g><path d="M 1.359375 0 L 1.359375 -11.4375 L 10.046875 -11.4375 L 10.046875 -10.171875 L 2.921875 -10.171875 L 2.921875 -6.5 L 9.546875 -6.5 L 9.546875 -5.25 L 2.921875 -5.25 L 2.921875 -1.265625 L 10.375 -1.265625 L 10.375 0 Z M 1.359375 0 "/></g></g></g><g fill="rgb(100%, 100%, 100%)" fill-opacity="1"><g transform="translate(158.27723, 187.333245)"><g><path d="M 10.328125 -3.15625 C 10.328125 -2.101562 9.910156 -1.285156 9.078125 -0.703125 C 8.253906 -0.128906 7.09375 0.15625 5.59375 0.15625 C 2.8125 0.15625 1.195312 -0.8125 0.75 -2.75 L 2.25 -3.046875 C 2.425781 -2.359375 2.796875 -1.851562 3.359375 -1.53125 C 3.921875 -1.207031 4.6875 -1.046875 5.65625 -1.046875 C 6.65625 -1.046875 7.425781 -1.21875 7.96875 -1.5625 C 8.519531 -1.90625 8.796875 -2.410156 8.796875 -3.078125 C 8.796875 -3.453125 8.707031 -3.753906 8.53125 -3.984375 C 8.363281 -4.210938 8.125 -4.40625 7.8125 -4.5625 C 7.507812 -4.71875 7.144531 -4.84375 6.71875 -4.9375 C 6.289062 -5.039062 5.816406 -5.15625 5.296875 -5.28125 C 4.390625 -5.476562 3.703125 -5.675781 3.234375 -5.875 C 2.765625 -6.070312 2.394531 -6.296875 2.125 -6.546875 C 1.851562 -6.796875 1.644531 -7.082031 1.5 -7.40625 C 1.363281 -7.738281 1.296875 -8.117188 1.296875 -8.546875 C 1.296875 -9.523438 1.671875 -10.28125 2.421875 -10.8125 C 3.171875 -11.34375 4.242188 -11.609375 5.640625 -11.609375 C 6.929688 -11.609375 7.921875 -11.410156 8.609375 -11.015625 C 9.296875 -10.617188 9.78125 -9.941406 10.0625 -8.984375 L 8.53125 -8.703125 C 8.363281 -9.316406 8.046875 -9.757812 7.578125 -10.03125 C 7.109375 -10.300781 6.457031 -10.4375 5.625 -10.4375 C 4.707031 -10.4375 4.003906 -10.285156 3.515625 -9.984375 C 3.035156 -9.679688 2.796875 -9.226562 2.796875 -8.625 C 2.796875 -8.269531 2.890625 -7.976562 3.078125 -7.75 C 3.265625 -7.519531 3.535156 -7.328125 3.890625 -7.171875 C 4.242188 -7.015625 4.941406 -6.816406 5.984375 -6.578125 C 6.335938 -6.503906 6.6875 -6.421875 7.03125 -6.328125 C 7.382812 -6.242188 7.722656 -6.144531 8.046875 -6.03125 C 8.367188 -5.914062 8.664062 -5.78125 8.9375 -5.625 C 9.21875 -5.46875 9.460938 -5.273438 9.671875 -5.046875 C 9.878906 -4.816406 10.039062 -4.546875 10.15625 -4.234375 C 10.269531 -3.929688 10.328125 -3.570312 10.328125 -3.15625 Z M 10.328125 -3.15625 "/></g></g></g><g fill="rgb(100%, 100%, 100%)" fill-opacity="1"><g transform="translate(172.852899, 187.333245)"><g><path d="M 10.21875 -8 C 10.21875 -6.914062 9.863281 -6.050781 9.15625 -5.40625 C 8.445312 -4.769531 7.488281 -4.453125 6.28125 -4.453125 L 2.921875 -4.453125 L 2.921875 0 L 1.359375 0 L 1.359375 -11.4375 L 6.171875 -11.4375 C 7.453125 -11.4375 8.445312 -11.132812 9.15625 -10.53125 C 9.863281 -9.9375 10.21875 -9.09375 10.21875 -8 Z M 8.65625 -7.984375 C 8.65625 -9.460938 7.765625 -10.203125 5.984375 -10.203125 L 2.921875 -10.203125 L 2.921875 -5.6875 L 6.0625 -5.6875 C 7.789062 -5.6875 8.65625 -6.453125 8.65625 -7.984375 Z M 8.65625 -7.984375 "/></g></g></g><g fill="rgb(100%, 100%, 100%)" fill-opacity="1"><g transform="translate(187.428568, 187.333245)"><g><path d="M 1.359375 0 L 1.359375 -11.4375 L 10.046875 -11.4375 L 10.046875 -10.171875 L 2.921875 -10.171875 L 2.921875 -6.5 L 9.546875 -6.5 L 9.546875 -5.25 L 2.921875 -5.25 L 2.921875 -1.265625 L 10.375 -1.265625 L 10.375 0 Z M 1.359375 0 "/></g></g></g><g fill="rgb(100%, 100%, 100%)" fill-opacity="1"><g transform="translate(202.004244, 187.333245)"><g><path d="M 9.453125 0 L 6.484375 -4.75 L 2.921875 -4.75 L 2.921875 0 L 1.359375 0 L 1.359375 -11.4375 L 6.75 -11.4375 C 8.03125 -11.4375 9.019531 -11.144531 9.71875 -10.5625 C 10.425781 -9.988281 10.78125 -9.191406 10.78125 -8.171875 C 10.78125 -7.316406 10.53125 -6.597656 10.03125 -6.015625 C 9.539062 -5.441406 8.859375 -5.078125 7.984375 -4.921875 L 11.234375 0 Z M 9.21875 -8.15625 C 9.21875 -8.820312 8.988281 -9.328125 8.53125 -9.671875 C 8.082031 -10.023438 7.4375 -10.203125 6.59375 -10.203125 L 2.921875 -10.203125 L 2.921875 -5.96875 L 6.65625 -5.96875 C 7.46875 -5.96875 8.097656 -6.160156 8.546875 -6.546875 C 8.992188 -6.929688 9.21875 -7.46875 9.21875 -8.15625 Z M 9.21875 -8.15625 "/></g></g></g><g fill="rgb(100%, 100%, 100%)" fill-opacity="1"><g transform="translate(217.496785, 187.333245)"><g><path d="M 9.46875 0 L 8.171875 -3.34375 L 2.953125 -3.34375 L 1.640625 0 L 0.03125 0 L 4.703125 -11.4375 L 6.46875 -11.4375 L 11.0625 0 Z M 5.5625 -10.265625 L 5.484375 -10.046875 C 5.347656 -9.597656 5.148438 -9.019531 4.890625 -8.3125 L 3.421875 -4.546875 L 7.703125 -4.546875 L 6.234375 -8.328125 C 6.078125 -8.703125 5.925781 -9.125 5.78125 -9.59375 Z M 5.5625 -10.265625 "/></g></g></g><g fill="rgb(100%, 100%, 100%)" fill-opacity="1"><g transform="translate(232.07246, 187.333245)"><g><path d="M 8.78125 0 L 2.65625 -9.734375 L 2.703125 -8.953125 L 2.75 -7.59375 L 2.75 0 L 1.359375 0 L 1.359375 -11.4375 L 3.171875 -11.4375 L 9.359375 -1.625 C 9.285156 -2.6875 9.25 -3.457031 9.25 -3.9375 L 9.25 -11.4375 L 10.65625 -11.4375 L 10.65625 0 Z M 8.78125 0 "/></g></g></g><g fill="rgb(100%, 100%, 100%)" fill-opacity="1"><g transform="translate(247.565001, 187.333245)"><g><path d="M 6.421875 -10.34375 C 5.160156 -10.34375 4.175781 -9.9375 3.46875 -9.125 C 2.769531 -8.3125 2.421875 -7.191406 2.421875 -5.765625 C 2.421875 -4.367188 2.785156 -3.242188 3.515625 -2.390625 C 4.253906 -1.535156 5.25 -1.109375 6.5 -1.109375 C 8.09375 -1.109375 9.296875 -1.898438 10.109375 -3.484375 L 11.375 -2.859375 C 10.90625 -1.867188 10.242188 -1.117188 9.390625 -0.609375 C 8.535156 -0.0976562 7.546875 0.15625 6.421875 0.15625 C 5.265625 0.15625 4.265625 -0.0820312 3.421875 -0.5625 C 2.585938 -1.039062 1.945312 -1.722656 1.5 -2.609375 C 1.0625 -3.492188 0.84375 -4.546875 0.84375 -5.765625 C 0.84375 -7.585938 1.332031 -9.015625 2.3125 -10.046875 C 3.300781 -11.085938 4.664062 -11.609375 6.40625 -11.609375 C 7.625 -11.609375 8.640625 -11.367188 9.453125 -10.890625 C 10.273438 -10.410156 10.878906 -9.707031 11.265625 -8.78125 L 9.796875 -8.28125 C 9.535156 -8.945312 9.109375 -9.457031 8.515625 -9.8125 C 7.929688 -10.164062 7.234375 -10.34375 6.421875 -10.34375 Z M 7.921875 2.046875 C 7.921875 3.023438 7.179688 3.515625 5.703125 3.515625 C 5.390625 3.515625 5.144531 3.503906 4.96875 3.484375 L 4.96875 2.6875 C 5.226562 2.726562 5.460938 2.75 5.671875 2.75 C 6.460938 2.75 6.859375 2.53125 6.859375 2.09375 C 6.859375 1.675781 6.5 1.46875 5.78125 1.46875 C 5.539062 1.46875 5.382812 1.472656 5.3125 1.484375 L 5.84375 0 L 6.71875 0 L 6.390625 0.8125 C 6.898438 0.832031 7.28125 0.953125 7.53125 1.171875 C 7.789062 1.390625 7.921875 1.679688 7.921875 2.046875 Z M 7.921875 2.046875 "/></g></g></g><g fill="rgb(100%, 100%, 100%)" fill-opacity="1"><g transform="translate(263.057543, 187.333245)"><g><path d="M 9.46875 0 L 8.171875 -3.34375 L 2.953125 -3.34375 L 1.640625 0 L 0.03125 0 L 4.703125 -11.4375 L 6.46875 -11.4375 L 11.0625 0 Z M 5.5625 -10.265625 L 5.484375 -10.046875 C 5.347656 -9.597656 5.148438 -9.019531 4.890625 -8.3125 L 3.421875 -4.546875 L 7.703125 -4.546875 L 6.234375 -8.328125 C 6.078125 -8.703125 5.925781 -9.125 5.78125 -9.59375 Z M 5.5625 -10.265625 "/></g></g></g></svg>